<svg preserveAspectRatio="none" overflow="visible" style="display: block;" width="370" height="274" viewBox="0 0 370 274" fill="none" xmlns="http://www.w3.org/2000/svg">
<g id="Glass molecule / distant" opacity="0.28">
<path id="Vector" d="M63.755 110.97L152.12 50.69" stroke="url(#paint0_linear_0_127)" stroke-width="11.645" stroke-linecap="round"/>
<path id="Vector_2" d="M63.755 109.6L152.12 49.32" stroke="#B1FFFF" stroke-opacity="0.27" stroke-width="1.37"/>
<path id="Vector_3" d="M152.12 50.69L249.39 113.71" stroke="url(#paint1_linear_0_127)" stroke-width="11.645" stroke-linecap="round"/>
<path id="Vector_4" d="M152.12 49.32L249.39 112.34" stroke="#B1FFFF" stroke-opacity="0.27" stroke-width="1.37"/>
<path id="Vector_5" d="M249.39 113.71L208.29 207.555" stroke="url(#paint2_linear_0_127)" stroke-width="11.645" stroke-linecap="round"/>
<path id="Vector_6" d="M249.39 112.34L208.29 206.185" stroke="#B1FFFF" stroke-opacity="0.27" stroke-width="1.37"/>
<path id="Vector_7" d="M208.29 207.555L106.225 214.405" stroke="url(#paint3_linear_0_127)" stroke-width="11.645" stroke-linecap="round"/>
<path id="Vector_8" d="M208.29 206.185L106.225 213.035" stroke="#B1FFFF" stroke-opacity="0.27" stroke-width="1.37"/>
<path id="Vector_9" d="M106.225 214.405L63.755 110.97" stroke="url(#paint4_linear_0_127)" stroke-width="11.645" stroke-linecap="round"/>
<path id="Vector_10" d="M106.225 213.035L63.755 109.6" stroke="#B1FFFF" stroke-opacity="0.27" stroke-width="1.37"/>
<path id="Vector_11" d="M208.29 207.555L322.685 225.365" stroke="url(#paint5_linear_0_127)" stroke-width="11.645" stroke-linecap="round"/>
<path id="Vector_12" d="M208.29 206.185L322.685 223.995" stroke="#B1FFFF" stroke-opacity="0.27" stroke-width="1.37"/>
<path id="Vector_13" d="M63.755 110.97L208.29 207.555" stroke="url(#paint6_linear_0_127)" stroke-width="11.645" stroke-linecap="round"/>
<path id="Vector_14" d="M63.755 109.6L208.29 206.185" stroke="#B1FFFF" stroke-opacity="0.27" stroke-width="1.37"/>
<path id="Vector_15" d="M63.755 140.425C80.0225 140.425 93.21 127.238 93.21 110.97C93.21 94.7025 80.0225 81.515 63.755 81.515C47.4875 81.515 34.3 94.7025 34.3 110.97C34.3 127.238 47.4875 140.425 63.755 140.425Z" fill="url(#paint7_radial_0_127)" stroke="#A2F1F1" stroke-opacity="0.4" stroke-width="0.685"/>
<path id="Vector_16" d="M55.5076 104.49C60.0625 104.49 63.755 102.644 63.755 100.366C63.755 98.0887 60.0625 96.2425 55.5076 96.2425C50.9527 96.2425 47.2602 98.0887 47.2602 100.366C47.2602 102.644 50.9527 104.49 55.5076 104.49Z" fill="white" fill-opacity="0.37"/>
<path id="Vector_17" d="M152.12 92.475C175.197 92.475 193.905 73.7672 193.905 50.69C193.905 27.6128 175.197 8.905 152.12 8.905C129.043 8.905 110.335 27.6128 110.335 50.69C110.335 73.7672 129.043 92.475 152.12 92.475Z" fill="url(#paint8_radial_0_127)" stroke="#A2F1F1" stroke-opacity="0.4" stroke-width="0.685"/>
<path id="Vector_18" d="M140.42 41.4973C146.882 41.4973 152.12 38.8782 152.12 35.6474C152.12 32.4166 146.882 29.7975 140.42 29.7975C133.959 29.7975 128.72 32.4166 128.72 35.6474C128.72 38.8782 133.959 41.4973 140.42 41.4973Z" fill="white" fill-opacity="0.37"/>
<path id="Vector_19" d="M249.39 147.275C267.927 147.275 282.955 132.247 282.955 113.71C282.955 95.1726 267.927 80.145 249.39 80.145C230.853 80.145 215.825 95.1726 215.825 113.71C215.825 132.247 230.853 147.275 249.39 147.275Z" fill="url(#paint9_radial_0_127)" stroke="#A2F1F1" stroke-opacity="0.4" stroke-width="0.685"/>
<path id="Vector_20" d="M239.992 106.326C245.182 106.326 249.39 104.222 249.39 101.627C249.39 99.0314 245.182 96.9275 239.992 96.9275C234.801 96.9275 230.594 99.0314 230.594 101.627C230.594 104.222 234.801 106.326 239.992 106.326Z" fill="white" fill-opacity="0.37"/>
<path id="Vector_21" d="M208.29 253.45C233.637 253.45 254.185 232.902 254.185 207.555C254.185 182.208 233.637 161.66 208.29 161.66C182.943 161.66 162.395 182.208 162.395 207.555C162.395 232.902 182.943 253.45 208.29 253.45Z" fill="url(#paint10_radial_0_127)" stroke="#A2F1F1" stroke-opacity="0.4" stroke-width="0.685"/>
<path id="Vector_22" d="M195.439 197.458C202.537 197.458 208.29 194.581 208.29 191.033C208.29 187.484 202.537 184.607 195.439 184.607C188.342 184.607 182.589 187.484 182.589 191.033C182.589 194.581 188.342 197.458 195.439 197.458Z" fill="white" fill-opacity="0.37"/>
<path id="Vector_23" d="M106.225 243.86C122.493 243.86 135.68 230.673 135.68 214.405C135.68 198.137 122.493 184.95 106.225 184.95C89.9574 184.95 76.77 198.137 76.77 214.405C76.77 230.673 89.9574 243.86 106.225 243.86Z" fill="url(#paint11_radial_0_127)" stroke="#A2F1F1" stroke-opacity="0.4" stroke-width="0.685"/>
<path id="Vector_24" d="M97.9776 207.925C102.533 207.925 106.225 206.079 106.225 203.801C106.225 201.524 102.533 199.678 97.9776 199.678C93.4227 199.678 89.7302 201.524 89.7302 203.801C89.7302 206.079 93.4227 207.925 97.9776 207.925Z" fill="white" fill-opacity="0.37"/>
<path id="Vector_25" d="M322.685 247.285C334.791 247.285 344.605 237.471 344.605 225.365C344.605 213.259 334.791 203.445 322.685 203.445C310.579 203.445 300.765 213.259 300.765 225.365C300.765 237.471 310.579 247.285 322.685 247.285Z" fill="url(#paint12_radial_0_127)" stroke="#A2F1F1" stroke-opacity="0.4" stroke-width="0.685"/>
<path id="Vector_26" d="M316.547 220.543C319.937 220.543 322.685 219.169 322.685 217.474C322.685 215.779 319.937 214.405 316.547 214.405C313.158 214.405 310.41 215.779 310.41 217.474C310.41 219.169 313.158 220.543 316.547 220.543Z" fill="white" fill-opacity="0.37"/>
</g>
<defs>
<linearGradient id="paint0_linear_0_127" x1="63.755" y1="50.69" x2="119.88" y2="132.963" gradientUnits="userSpaceOnUse">
<stop stop-color="#8DDAD9" stop-opacity="0.7"/>
<stop offset="0.5" stop-color="#226180" stop-opacity="0.65"/>
<stop offset="1" stop-color="#B6FFFF" stop-opacity="0.5"/>
</linearGradient>
<linearGradient id="paint1_linear_0_127" x1="152.12" y1="50.69" x2="209.637" y2="139.466" gradientUnits="userSpaceOnUse">
<stop stop-color="#8DDAD9" stop-opacity="0.7"/>
<stop offset="0.5" stop-color="#226180" stop-opacity="0.65"/>
<stop offset="1" stop-color="#B6FFFF" stop-opacity="0.5"/>
</linearGradient>
<linearGradient id="paint2_linear_0_127" x1="208.29" y1="113.71" x2="277.261" y2="143.916" gradientUnits="userSpaceOnUse">
<stop stop-color="#8DDAD9" stop-opacity="0.7"/>
<stop offset="0.5" stop-color="#226180" stop-opacity="0.65"/>
<stop offset="1" stop-color="#B6FFFF" stop-opacity="0.5"/>
</linearGradient>
<linearGradient id="paint3_linear_0_127" x1="106.225" y1="207.555" x2="107.14" y2="221.194" gradientUnits="userSpaceOnUse">
<stop stop-color="#8DDAD9" stop-opacity="0.7"/>
<stop offset="0.5" stop-color="#226180" stop-opacity="0.65"/>
<stop offset="1" stop-color="#B6FFFF" stop-opacity="0.5"/>
</linearGradient>
<linearGradient id="paint4_linear_0_127" x1="63.755" y1="110.97" x2="136.441" y2="140.815" gradientUnits="userSpaceOnUse">
<stop stop-color="#8DDAD9" stop-opacity="0.7"/>
<stop offset="0.5" stop-color="#226180" stop-opacity="0.65"/>
<stop offset="1" stop-color="#B6FFFF" stop-opacity="0.5"/>
</linearGradient>
<linearGradient id="paint5_linear_0_127" x1="208.29" y1="207.555" x2="213.704" y2="242.332" gradientUnits="userSpaceOnUse">
<stop stop-color="#8DDAD9" stop-opacity="0.7"/>
<stop offset="0.5" stop-color="#226180" stop-opacity="0.65"/>
<stop offset="1" stop-color="#B6FFFF" stop-opacity="0.5"/>
</linearGradient>
<linearGradient id="paint6_linear_0_127" x1="63.755" y1="110.97" x2="152.991" y2="244.508" gradientUnits="userSpaceOnUse">
<stop stop-color="#8DDAD9" stop-opacity="0.7"/>
<stop offset="0.5" stop-color="#226180" stop-opacity="0.65"/>
<stop offset="1" stop-color="#B6FFFF" stop-opacity="0.5"/>
</linearGradient>
<radialGradient id="paint7_radial_0_127" cx="0" cy="0" r="1" gradientUnits="userSpaceOnUse" gradientTransform="translate(51.973 94.4752) scale(50.0735)">
<stop stop-color="#E4FDFF" stop-opacity="0.92"/>
<stop offset="0.18" stop-color="#78C6FF" stop-opacity="0.62"/>
<stop offset="0.6" stop-color="#1465BB" stop-opacity="0.3"/>
<stop offset="0.86" stop-color="#082E50" stop-opacity="0.85"/>
<stop offset="1" stop-color="#7ADFD7" stop-opacity="0.55"/>
</radialGradient>
<radialGradient id="paint8_radial_0_127" cx="0" cy="0" r="1" gradientUnits="userSpaceOnUse" gradientTransform="translate(135.406 27.2904) scale(71.0345)">
<stop stop-color="#E4FDFF" stop-opacity="0.92"/>
<stop offset="0.18" stop-color="#8BEDE4" stop-opacity="0.62"/>
<stop offset="0.6" stop-color="#148B9C" stop-opacity="0.3"/>
<stop offset="0.86" stop-color="#082E50" stop-opacity="0.85"/>
<stop offset="1" stop-color="#7ADFD7" stop-opacity="0.55"/>
</radialGradient>
<radialGradient id="paint9_radial_0_127" cx="0" cy="0" r="1" gradientUnits="userSpaceOnUse" gradientTransform="translate(235.964 94.9136) scale(57.0605)">
<stop stop-color="#E4FDFF" stop-opacity="0.92"/>
<stop offset="0.18" stop-color="#78C6FF" stop-opacity="0.62"/>
<stop offset="0.6" stop-color="#1465BB" stop-opacity="0.3"/>
<stop offset="0.86" stop-color="#082E50" stop-opacity="0.85"/>
<stop offset="1" stop-color="#7ADFD7" stop-opacity="0.55"/>
</radialGradient>
<radialGradient id="paint10_radial_0_127" cx="0" cy="0" r="1" gradientUnits="userSpaceOnUse" gradientTransform="translate(189.932 181.854) scale(78.0215)">
<stop stop-color="#E4FDFF" stop-opacity="0.92"/>
<stop offset="0.18" stop-color="#8BEDE4" stop-opacity="0.62"/>
<stop offset="0.6" stop-color="#148B9C" stop-opacity="0.3"/>
<stop offset="0.86" stop-color="#082E50" stop-opacity="0.85"/>
<stop offset="1" stop-color="#7ADFD7" stop-opacity="0.55"/>
</radialGradient>
<radialGradient id="paint11_radial_0_127" cx="0" cy="0" r="1" gradientUnits="userSpaceOnUse" gradientTransform="translate(94.443 197.91) scale(50.0735)">
<stop stop-color="#E4FDFF" stop-opacity="0.92"/>
<stop offset="0.18" stop-color="#78C6FF" stop-opacity="0.62"/>
<stop offset="0.6" stop-color="#1465BB" stop-opacity="0.3"/>
<stop offset="0.86" stop-color="#082E50" stop-opacity="0.85"/>
<stop offset="1" stop-color="#7ADFD7" stop-opacity="0.55"/>
</radialGradient>
<radialGradient id="paint12_radial_0_127" cx="0" cy="0" r="1" gradientUnits="userSpaceOnUse" gradientTransform="translate(313.917 213.09) scale(37.264)">
<stop stop-color="#E4FDFF" stop-opacity="0.92"/>
<stop offset="0.18" stop-color="#8BEDE4" stop-opacity="0.62"/>
<stop offset="0.6" stop-color="#148B9C" stop-opacity="0.3"/>
<stop offset="0.86" stop-color="#082E50" stop-opacity="0.85"/>
<stop offset="1" stop-color="#7ADFD7" stop-opacity="0.55"/>
</radialGradient>
</defs>
</svg>
